<?xml version="1.0" encoding="utf-8"?>
<?xml-stylesheet type="text/xsl" href="rss1.xsl"?>
<rss version="2.0" xmlns:atom="http://www.w3.org/2005/Atom" xmlns:content="http://purl.org/rss/1.0/modules/content/" xmlns:dc="http://purl.org/dc/elements/1.1/" xmlns:media="http://search.yahoo.com/mrss/">
<channel>
 <title>sharemania</title>
 <link>http://www.sharemania.us/</link>
 <atom:link href="http://www.gettyimg.com/" rel="self" type="application/rss+xml" />

 
                <item>
                <title><![CDATA[【Singles (lossless)】FLAC - Diana Vickers - Ice Cream (Single) [Flac - Qobuz 24-Bit/44.1 kHz] (2025)]]></title>
                <link><![CDATA[https://sharemania.us/threads/diana-vickers-ice-cream-single-flac-qobuz-24-bit-44-1-khz-2025.282406/]]></link>
                <description><![CDATA[<article>
				<blockquote class="messageText SelectQuoteContainer ugc baseHtml">
					
					<div style="text-align: center"><img src="https://a5.mzstatic.com/us/r1000/0/Music221/v4/06/29/58/06295832-db95-9e04-bc91-6154a07ca648/artwork.jpg" class="bbCodeImage LbImage" alt="[​IMG]" data-url="https://a5.mzstatic.com/us/r1000/0/Music221/v4/06/29/58/06295832-db95-9e04-bc91-6154a07ca648/artwork.jpg" style=""> <br>
<br>
<span style="font-family: 'Georgia'"><span style="color: #c8947a"><b>Ice Cream - Single</b><br>
<br>
<b>Genre:</b> Pop<br>
<b>Release date: </b>22 August 2025<br>
<br>
<b><span style="text-decoration: underline">Tracklist :</span></b><br>
<i>1 - Ice Cream</i><br>
<br>
<b><span style="text-decoration: underline">Download :</span></b><br>




<div class="bbCodeBlock bbCodeVfcHH HiddenContent">
	<div class="attribution type">Hidden Content:</div>
	<blockquote>You must reply before you can see the hidden data contained here.</blockquote>
</div></span></span>​</div>
					<div class="messageTextEndMarker">&nbsp;</div>
				</blockquote>
			</article>]]></description>
                <author><![CDATA[Cristalex]]></author>
                </item>

                
                <item>
                <title><![CDATA[【Cinema Center】SERIES - Good Luck, Charlie! (2010) - S01E01 - Study Date [720p] [DUAL; PT-BR, EN]]]></title>
                <link><![CDATA[https://sharemania.us/threads/good-luck-charlie-2010-s01e01-study-date-720p-dual-pt-br-en.282403/]]></link>
                <description><![CDATA[<article>
				<blockquote class="messageText SelectQuoteContainer ugc baseHtml">
					
					<img src="https://m.media-amazon.com/images/S/pv-target-images/19b93282a0f2e88254239cf68d050b77f635d1a1f2a30a61ffc0d86f7a9021e1.jpg" class="bbCodeImage LbImage" alt="[​IMG]" data-url="https://m.media-amazon.com/images/S/pv-target-images/19b93282a0f2e88254239cf68d050b77f635d1a1f2a30a61ffc0d86f7a9021e1.jpg" style=""> <br>
<br>
Hosted on <b>Pixeldrain. </b>If link off, just comment here ;)<br>
<br>




<div class="bbCodeBlock bbCodeVfcHH HiddenContent">
	<div class="attribution type">Hidden Content:</div>
	<blockquote>You must reply before you can see the hidden data contained here.</blockquote>
</div>
					<div class="messageTextEndMarker">&nbsp;</div>
				</blockquote>
			</article>]]></description>
                <author><![CDATA[jaoobarthur]]></author>
                </item>

                
                <item>
                <title><![CDATA[【HD Live Performances】HDTV - Lady Gaga - Marry The Night (Live The Ellen Degeneres Show 2011) [1080p HDTV].ts]]></title>
                <link><![CDATA[https://sharemania.us/threads/lady-gaga-marry-the-night-live-the-ellen-degeneres-show-2011-1080p-hdtv-ts.282402/]]></link>
                <description><![CDATA[<article>
				<blockquote class="messageText SelectQuoteContainer ugc baseHtml">
					
					Format                                   : MPEG-TS<br>
File size                                : 457 MiB<br>
Duration                                 : 4 min 54 s<br>
Overall bit rate mode                    : Variable<br>
Overall bit rate                         : 13.0 Mb/s<br>
Frame rate                               : 29.970 FPS<br>
Title                                    : Ellen DeGeneres Show, The<br>
Law rating                               : TV-G<br>
<br>
Video<br>
ID                                       : 1984 (0x7C0)<br>
Menu ID                                  : 1 (0x1)<br>
Format                                   : MPEG Video<br>
Format version                           : Version 2<br>
Format profile                           : Main@High<br>
Format settings                          : CustomMatrix / BVOP<br>
Format settings, BVOP                    : Yes<br>
Format settings, Matrix                  : Custom<br>
Format settings, GOP                     : Variable<br>
Format settings, picture structure       : Frame<br>
Codec ID                                 : 2<br>
Duration                                 : 4 min 54 s<br>
Bit rate mode                            : Variable<br>
Bit rate                                 : 12.0 Mb/s<br>
Maximum bit rate                         : 20.0 Mb/s<br>
Width                                    : 1 920 pixels<br>
Height                                   : 1 080 pixels<br>
Display aspect ratio                     : 16:9<br>
Active Format Description                : Full frame 16:9 image<br>
Frame rate                               : 29.970 (30000/1001) FPS<br>
Color space                              : YUV<br>
Chroma subsampling                       : 4:2:0<br>
Bit depth                                : 8 bits<br>
Scan type                                : Interlaced<br>
Scan order                               : Top Field First<br>
Compression mode                         : Lossy<br>
Bits/(Pixel*Frame)                       : 0.193<br>
Time code of first frame                 : 00:00:00;00<br>
Time code source                         : Group of pictures header<br>
GOP, Open/Closed                         : Open<br>
GOP, Open/Closed of first frame          : Closed<br>
Stream size                              : 421 MiB (92%)<br>
<br>
Audio<br>
ID                                       : 1985 (0x7C1)<br>
Menu ID                                  : 1 (0x1)<br>
Format                                   : AC-3<br>
Format/Info                              : Audio Coding 3<br>
Commercial name                          : Dolby Digital<br>
Codec ID                                 : 129<br>
Duration                                 : 4 min 54 s<br>
Bit rate mode                            : Constant<br>
Bit rate                                 : 384 kb/s<br>
Channel(s)                               : 6 channels<br>
Channel layout                           : L R C LFE Ls Rs<br>
Sampling rate                            : 48.0 kHz<br>
Frame rate                               : 31.250 FPS (1536 SPF)<br>
Compression mode                         : Lossy<br>
Stream size                              : 13.5 MiB (3%)<br>
Language                                 : English<br>
Service kind                             : Complete Main<br>
Dialog Normalization                     : -24 dB<br>
compr                                    : -1.80 dB<br>
dynrng                                   : -1.97 dB<br>
cmixlev                                  : -3.0 dB<br>
surmixlev                                : -3 dB<br>
dialnorm_Average                         : -24 dB<br>
dialnorm_Minimum                         : -24 dB<br>
dialnorm_Maximum                         : -24 dB<br>
<br>
Text #1<br>
ID                                       : 1984 (0x7C0)-CC1<br>
Menu ID                                  : 1 (0x1)<br>
Format                                   : EIA-608<br>
Muxing mode                              : A/53 / DTVCC Transport<br>
Muxing mode, more info                   : Muxed in Video #1<br>
Duration                                 : 4 min 54 s<br>
Duration of the visible content          : 4 min 47 s<br>
Start time                               : 5 s 184 ms<br>
End time                                 : 4 min 52 s<br>
Bit rate mode                            : Constant<br>
Stream size                              : 0.00 Byte (0%)<br>
Count of frames before first event       : 266<br>
Type of the first event                  : RollUp<br>
<br>
Text #2<br>
ID                                       : 1984 (0x7C0)-1<br>
Menu ID                                  : 1 (0x1)<br>
Format                                   : EIA-708<br>
Muxing mode                              : A/53 / DTVCC Transport<br>
Muxing mode, more info                   : Muxed in Video #1<br>
Duration                                 : 4 min 54 s<br>
Bit rate mode                            : Constant<br>
Stream size                              : 0.00 Byte (0%)<br>
<br>
<br>
<br>




<div class="bbCodeBlock bbCodeVfcHH HiddenContent">
	<div class="attribution type">Hidden Content:</div>
	<blockquote>You must either reply or click 'Like' to see the hidden information contained here.</blockquote>
</div>
					<div class="messageTextEndMarker">&nbsp;</div>
				</blockquote>
			</article>]]></description>
                <author><![CDATA[Naner77]]></author>
                </item>

                
                <item>
                <title><![CDATA[【Actresses】Mary-Louise Parker - Weeds S06E08(2010)1080p]]></title>
                <link><![CDATA[https://sharemania.us/threads/mary-louise-parker-weeds-s06e08-2010-1080p.282407/]]></link>
                <description><![CDATA[<article>
				<blockquote class="messageText SelectQuoteContainer ugc baseHtml">
					
					Mary-Louise Parker - Weeds S06E08(2010)1080p<br>
<br>
<a href="https://imgbox.com/eHlzKfy6" target="_blank" class="externalLink" rel="nofollow"><img src="https://thumbs2.imgbox.com/eb/5b/eHlzKfy6_t.jpg" class="bbCodeImage LbImage" alt="[​IMG]" data-url="https://thumbs2.imgbox.com/eb/5b/eHlzKfy6_t.jpg"></a> <a href="https://imgbox.com/E8c89Ep4" target="_blank" class="externalLink" rel="nofollow"><img src="https://thumbs2.imgbox.com/1b/fe/E8c89Ep4_t.jpg" class="bbCodeImage LbImage" alt="[​IMG]" data-url="https://thumbs2.imgbox.com/1b/fe/E8c89Ep4_t.jpg"></a> <a href="https://imgbox.com/rVWZh6H4" target="_blank" class="externalLink" rel="nofollow"><img src="https://thumbs2.imgbox.com/30/43/rVWZh6H4_t.jpg" class="bbCodeImage LbImage" alt="[​IMG]" data-url="https://thumbs2.imgbox.com/30/43/rVWZh6H4_t.jpg"></a> <a href="https://imgbox.com/fNoSOpf2" target="_blank" class="externalLink" rel="nofollow"><img src="https://thumbs2.imgbox.com/f8/8e/fNoSOpf2_t.jpg" class="bbCodeImage LbImage" alt="[​IMG]" data-url="https://thumbs2.imgbox.com/f8/8e/fNoSOpf2_t.jpg"></a> <a href="https://imgbox.com/XQGwpdz4" target="_blank" class="externalLink" rel="nofollow"><img src="https://thumbs2.imgbox.com/43/8e/XQGwpdz4_t.jpg" class="bbCodeImage LbImage" alt="[​IMG]" data-url="https://thumbs2.imgbox.com/43/8e/XQGwpdz4_t.jpg"></a> <a href="https://imgbox.com/XMMM1qCs" target="_blank" class="externalLink" rel="nofollow"><img src="https://thumbs2.imgbox.com/43/61/XMMM1qCs_t.jpg" class="bbCodeImage LbImage" alt="[​IMG]" data-url="https://thumbs2.imgbox.com/43/61/XMMM1qCs_t.jpg"></a><br>
Duration: 00:01:22 Resolution: 1920x1080 Format: mp4 Size: 52.81 MB<br>
<a href="https://filejoker.net/e241zn3e6tuw" target="_blank" class="externalLink" rel="nofollow">https://filejoker.net/e241zn3e6tuw</a>
					<div class="messageTextEndMarker">&nbsp;</div>
				</blockquote>
			</article>]]></description>
                <author><![CDATA[piqeros]]></author>
                </item>

                
                <item>
                <title><![CDATA[【HD Live Performances】HDTV - Lady Gaga - Marry The Night &amp; Born This Way (Live Music Station Super Live 2011) [1080p HDTV].ts]]></title>
                <link><![CDATA[https://sharemania.us/threads/lady-gaga-marry-the-night-born-this-way-live-music-station-super-live-2011-1080p-hdtv-ts.282404/]]></link>
                <description><![CDATA[<article>
				<blockquote class="messageText SelectQuoteContainer ugc baseHtml">
					
					Format                                   : MPEG-TS<br>
File size                                : 963 MiB<br>
Duration                                 : 8 min 54 s<br>
Start time                               : 2011-12-23 22:52:49 UTC<br>
End time                                 : 2011-12-23 23:01:39 UTC<br>
Overall bit rate mode                    : Variable<br>
Overall bit rate                         : 15.1 Mb/s<br>
Frame rate                               : 29.970 FPS<br>
Network name                             : 4XEl9-0h~µ<br>
<br>
Video<br>
ID                                       : 273 (0x111)<br>
Menu ID                                  : 1064 (0x428)<br>
Format                                   : MPEG Video<br>
Format version                           : Version 2<br>
Format profile                           : Main@High<br>
Format settings                          : CustomMatrix / BVOP<br>
Format settings, BVOP                    : Yes<br>
Format settings, Matrix                  : Custom<br>
Format settings, GOP                     : M=3, N=15<br>
Format settings, picture structure       : Frame<br>
Codec ID                                 : 2<br>
Duration                                 : 8 min 54 s<br>
Bit rate mode                            : Variable<br>
Maximum bit rate                         : 20.0 Mb/s<br>
Width                                    : 1 440 pixels<br>
Height                                   : 1 080 pixels<br>
Display aspect ratio                     : 16:9<br>
Frame rate                               : 29.970 (30000/1001) FPS<br>
Color space                              : YUV<br>
Chroma subsampling                       : 4:2:0<br>
Bit depth                                : 8 bits<br>
Scan type                                : Interlaced<br>
Scan order                               : Top Field First<br>
Compression mode                         : Lossy<br>
Time code of first frame                 : 19:34:24:23<br>
Time code source                         : Group of pictures header<br>
GOP, Open/Closed                         : Open<br>
Color primaries                          : BT.709<br>
Transfer characteristics                 : BT.709<br>
Matrix coefficients                      : BT.709<br>
<br>
Audio<br>
ID                                       : 274 (0x112)<br>
Menu ID                                  : 1064 (0x428)<br>
Format                                   : AAC LC<br>
Format/Info                              : Advanced Audio Codec Low Complexity<br>
Format version                           : Version 2<br>
Muxing mode                              : ADTS<br>
Codec ID                                 : 15-2<br>
Duration                                 : 8 min 54 s<br>
Bit rate mode                            : Variable<br>
Channel(s)                               : 6 channels<br>
Channel layout                           : C L R Ls Rs LFE<br>
Sampling rate                            : 48.0 kHz<br>
Frame rate                               : 46.875 FPS (1024 SPF)<br>
Compression mode                         : Lossy<br>
Delay relative to video                  : -199 ms<br>
<br>
Text<br>
ID                                       : 276 (0x114)-1<br>
Menu ID                                  : 1064 (0x428)<br>
Format                                   : ARIB STD B24/B37<br>
Codec ID                                 : 6<br>
Duration                                 : 8 min 47 s<br>
Bit rate mode                            : Constant<br>
Delay relative to video                  : 2 s 435 ms<br>
Stream size                              : 0.00 Byte (0%)<br>
Language                                 : Japanese<br>
<br>
Menu<br>
ID                                       : 1064 (0x428)<br>
Menu ID                                  : 1064 (0x428)<br>
Format                                   : MPEG Video / AAC / ARIB STD B24/B37 / ARIB STD B24/B37 /  /  /  /  /  /  / <br>
List                                     : 273 (0x111) (MPEG Video) / 274 (0x112) (AAC) / 276 (0x114) (ARIB STD B24/B37, Japanese) / 277 (0x115) (ARIB STD B24/B37) / 4096 (0x1000) () / 4097 (0x1001) () / 4098 (0x1002) () / 4099 (0x1003) () / 4100 (0x1004) () / 4101 (0x1005) () / 4102 (0x1006) ()<br>
Language                                 :  /  / Japanese<br>
<br>
<br>
<br>
<br>
<br>




<div class="bbCodeBlock bbCodeVfcHH HiddenContent">
	<div class="attribution type">Hidden Content:</div>
	<blockquote>You must either reply or click 'Like' to see the hidden information contained here.</blockquote>
</div>
					<div class="messageTextEndMarker">&nbsp;</div>
				</blockquote>
			</article>]]></description>
                <author><![CDATA[Naner77]]></author>
                </item>

                
                <item>
                <title><![CDATA[【HD Live Performances】WEB-DL - Metallica - Reading and Leeds Festival 2015 1080p iP WEB-DL AAC2.0 H.264-CasStudio]]></title>
                <link><![CDATA[https://sharemania.us/threads/metallica-reading-and-leeds-festival-2015-1080p-ip-web-dl-aac2-0-h-264-casstudio.282405/]]></link>
                <description><![CDATA[<article>
				<blockquote class="messageText SelectQuoteContainer ugc baseHtml">
					
					<a href="https://imgbox.com/rGbseyMi" target="_blank" class="externalLink" rel="nofollow"><img src="https://images2.imgbox.com/88/71/rGbseyMi_o.png" class="bbCodeImage LbImage" alt="[​IMG]" data-url="https://images2.imgbox.com/88/71/rGbseyMi_o.png"></a><br>
<br>


<div class="bbCodeBlock bbCodeCode">
	<div class="type">Code:</div>
	<pre>General
Unique ID                   : 44535299067323379272862518573199565255 (0x21812FC56274D5C00D7343E69BDCA1C7)
Complete name               : Radio.1.at.Reading.and.Leeds.Festival.2015.Metallica.1080p.iP.WEB-DL.AAC2.0.H.264-CasStudio.mkv
Format                      : Matroska
Format version              : Version 4
File size                   : 9.99 GiB
Duration                    : 2 h 11 min
Overall bit rate mode       : Variable
Overall bit rate            : 10.9 Mb/s
Frame rate                  : 50.000 FPS
Writing application         : mkvmerge 94.0 ('Initiate') 64-bit
Writing library             : libebml v1.4.5 + libmatroska v1.7.1

Video
ID                          : 1
Format                      : AVC
Format/Info                 : Advanced Video Codec
Format profile              : High@L4.2
Format settings             : CABAC / 4 Ref Frames
Format settings, CABAC      : Yes
Format settings, Reference  : 4 frames
Codec ID                    : V_MPEG4/ISO/AVC
Duration                    : 2 h 11 min
Bit rate mode               : Variable
Bit rate                    : 10.7 Mb/s
Maximum bit rate            : 12.0 Mb/s
Width                       : 1 920 pixels
Height                      : 1 080 pixels
Display aspect ratio        : 16:9
Frame rate mode             : Constant
Frame rate                  : 50.000 FPS
Color space                 : YUV
Chroma subsampling          : 4:2:0
Bit depth                   : 8 bits
Scan type                   : Progressive
Bits/(Pixel*Frame)          : 0.103
Stream size                 : 9.87 GiB (99%)
Default                     : Yes
Forced                      : No
Color range                 : Limited
Color primaries             : BT.709
Transfer characteristics    : BT.709
Matrix coefficients         : BT.709

Audio
ID                          : 2
Format                      : AAC LC
Format/Info                 : Advanced Audio Codec Low Complexity
Codec ID                    : A_AAC-2
Duration                    : 2 h 11 min
Bit rate                    : 128 kb/s
Channel(s)                  : 2 channels
Channel layout              : L R
Sampling rate               : 48.0 kHz
Frame rate                  : 46.875 FPS (1024 SPF)
Compression mode            : Lossy
Stream size                 : 121 MiB (1%)
Language                    : English
Default                     : Yes
Forced                      : No
</pre>
</div>



<div class="bbCodeBlock bbCodeVfcHH HiddenContent">
	<div class="attribution type">Hidden Content:</div>
	<blockquote>You must reply before you can see the hidden data contained here.</blockquote>
</div>
					<div class="messageTextEndMarker">&nbsp;</div>
				</blockquote>
			</article>]]></description>
                <author><![CDATA[Plazik]]></author>
                </item>

                
                <item>
                <title><![CDATA[【HD Live Performances】WEB-DL - Foo Fighters - Reading and Leeds Festival 2019 1080p iP WEB-DL AAC2.0 H.264-CasStudio]]></title>
                <link><![CDATA[https://sharemania.us/threads/foo-fighters-reading-and-leeds-festival-2019-1080p-ip-web-dl-aac2-0-h-264-casstudio.282408/]]></link>
                <description><![CDATA[<article>
				<blockquote class="messageText SelectQuoteContainer ugc baseHtml">
					
					<a href="https://imgbox.com/J0msaU0F" target="_blank" class="externalLink" rel="nofollow"><img src="https://images2.imgbox.com/e8/b8/J0msaU0F_o.png" class="bbCodeImage LbImage" alt="[​IMG]" data-url="https://images2.imgbox.com/e8/b8/J0msaU0F_o.png"></a><br>


<div class="bbCodeBlock bbCodeCode">
	<div class="type">Code:</div>
	<pre>General
Unique ID                   : 44535299067323379272862518573199565255 (0x21812FC56274D5C00D7343E69BDCA1C7)
Complete name               : Radio.1.at.Reading.and.Leeds.Festival.2019.Foo.Fighters.at.Reading.2019.1080p.iP.WEB-DL.AAC2.0.H.264-CasStudio.mkv
Format                      : Matroska
Format version              : Version 4
File size                   : 8.45 GiB
Duration                    : 1 h 57 min
Overall bit rate mode       : Variable
Overall bit rate            : 10.3 Mb/s
Frame rate                  : 50.000 FPS
Writing application         : mkvmerge 94.0 ('Initiate') 64-bit
Writing library             : libebml v1.4.5 + libmatroska v1.7.1

Video
ID                          : 1
Format                      : AVC
Format/Info                 : Advanced Video Codec
Format profile              : High@L4.2
Format settings             : CABAC / 4 Ref Frames
Format settings, CABAC      : Yes
Format settings, Reference  : 4 frames
Codec ID                    : V_MPEG4/ISO/AVC
Duration                    : 1 h 57 min
Bit rate mode               : Variable
Bit rate                    : 10.1 Mb/s
Maximum bit rate            : 12.0 Mb/s
Width                       : 1 920 pixels
Height                      : 1 080 pixels
Display aspect ratio        : 16:9
Frame rate mode             : Constant
Frame rate                  : 50.000 FPS
Color space                 : YUV
Chroma subsampling          : 4:2:0
Bit depth                   : 8 bits
Scan type                   : Progressive
Bits/(Pixel*Frame)          : 0.098
Stream size                 : 8.34 GiB (99%)
Default                     : Yes
Forced                      : No
Color range                 : Limited
Color primaries             : BT.709
Transfer characteristics    : BT.709
Matrix coefficients         : BT.709

Audio
ID                          : 2
Format                      : AAC LC
Format/Info                 : Advanced Audio Codec Low Complexity
Codec ID                    : A_AAC-2
Duration                    : 1 h 57 min
Bit rate                    : 128 kb/s
Channel(s)                  : 2 channels
Channel layout              : L R
Sampling rate               : 48.0 kHz
Frame rate                  : 46.875 FPS (1024 SPF)
Compression mode            : Lossy
Stream size                 : 108 MiB (1%)
Language                    : English
Default                     : Yes
Forced                      : No

Text #1
ID                          : 3
Format                      : UTF-8
Codec ID                    : S_TEXT/UTF8
Codec ID/Info               : UTF-8 Plain Text
Duration                    : 1 h 56 min
Bit rate                    : 44 b/s
Frame rate                  : 0.185 FPS
Count of elements           : 1291
Stream size                 : 38.4 KiB (0%)
Language                    : English
Default                     : No
Forced                      : No

Text #2
ID                          : 4
Format                      : UTF-8
Codec ID                    : S_TEXT/UTF8
Codec ID/Info               : UTF-8 Plain Text
Duration                    : 1 h 57 min
Bit rate                    : 46 b/s
Frame rate                  : 0.196 FPS
Count of elements           : 1389
Stream size                 : 39.8 KiB (0%)
Title                       : SDH
Language                    : English
Default                     : No
Forced                      : No
</pre>
</div>



<div class="bbCodeBlock bbCodeVfcHH HiddenContent">
	<div class="attribution type">Hidden Content:</div>
	<blockquote>You must reply before you can see the hidden data contained here.</blockquote>
</div>
					<div class="messageTextEndMarker">&nbsp;</div>
				</blockquote>
			</article>]]></description>
                <author><![CDATA[Plazik]]></author>
                </item>

                </channel></rss>